<?xml version="1.0" encoding="utf-8"?>
<!-- Generator: Adobe Illustrator 23.1.1, SVG Export Plug-In . SVG Version: 6.00 Build 0)  -->
<svg version="1.1" id="Layer_5" xmlns="http://www.w3.org/2000/svg" xmlns:xlink="http://www.w3.org/1999/xlink" x="0px" y="0px"
	 viewBox="0 0 512 512" style="enable-background:new 0 0 512 512;" xml:space="preserve">
<style type="text/css">
	.st0{fill:#F0BC5E;}
</style>
<g>
	<g>
		<path class="st0" d="M41.1,220.8l37.1,27.8L80,248v-48l-11.3-11.3c-3-3-4.7-7.1-4.7-11.3V176c0-8.8,7.2-16,16-16v-16
			c0-8.8,7.2-16,16-16h39.3c5.5,0,10.6,2.8,13.5,7.5c19.7-2.4,35.1-19.1,35.1-39.5c0-22.1-17.9-40-40-40c-12.6,0-24.5,6-32,16H90.7
			C45.1,72,8,109.1,8,154.7C8,180.5,20.4,205.3,41.1,220.8L41.1,220.8z"/>
	</g>
	<g>
		<g>
			<path class="st0" d="M494,247.9l-4.1-5.4c-6.4-8.5-9.9-19-9.9-29.7v-83.4c0-36.1-29.4-65.4-65.4-65.4h-13.9
				c-32.1,0-59.3,23-64.6,54.7l-0.5,2.9l4.5,7.5c2.2-5.8,3.9-9.1,3.9-9.1h48c17.7,0,32,14.3,32,32v16c8.8,0,16,7.2,16,16v1.4
				c0,4.2-1.7,8.3-4.7,11.3L424,208v32l8,24c17.7,0,32,14.3,32,32v32.2l1.9-0.5c22.4-5.6,38.1-25.6,38.1-48.7v-0.9
				C504,267.3,500.4,256.6,494,247.9L494,247.9z"/>
		</g>
	</g>
	<g>
		<circle cx="136" cy="168" r="8"/>
		<path d="M472,360.1V296c0-20-14.8-36.5-34-39.4l-6-17.9v-27.4l9-9c4.5-4.5,7-10.6,7-17V184c0-10.4-6.7-19.3-16-22.6V152
			c0-22.1-17.9-40-40-40h-52.9l-2.2,4.4c-0.7,1.4-16.8,34.2-16.8,75.6v5.8l10,3.3l-13,13l-16.8-10l-3.9,2c-4.5,2.3-9,4.2-13.5,5.6
			l-4.2,1.4l-4.8,18.8h-35.6l-4.8-18.8l-4.2-1.4c-4.5-1.4-9-3.3-13.5-5.6l-3.9-2l-16.8,10l-19.3-19.3c-1.3-27.8-12.8-51.3-19.9-63.2
			c-4.3-7.2-12.1-11.6-20.6-11.6H96c-13.2,0-24,10.8-24,24v9.4c-9.3,3.3-16,12.2-16,22.6v1.4c0,6.4,2.5,12.4,7,17l9,9v38.9l-9.7,3.2
			c-22.9,7.6-38.3,29-38.3,53.1v61.5v144h144V424h16v8c0,13.2,10.8,24,24,24h24c6.2,0,11.7-2.4,16-6.2c4.3,3.8,9.8,6.2,16,6.2h24
			c13.2,0,24-10.8,24-24v-8h16v80.1h144L472,360.1z M456,360.1v15.4c0,8.5-3.3,16.5-9.6,22.8c-6.3,6.3-14.6,9.7-23.3,9.7H287.7
			c-4.2,0-7.7-3.4-7.7-7.7v-14.2c0-6,3.2-10.1,8-10.1h12.9l5.9-11.9c2.2-4.3,8.6-5.4,12-2l13.8,13.8l75.3,0.1h0
			c4.3,0,8.3-1.7,11.3-4.7c3-3,4.7-7,4.7-11.3V344h32V360.1z M371,269.4c4.1,8.9,12.2,15.6,22,17.8c-0.6,2.8-1,5.8-1,8.8v48h16v16.1
			l-64-0.1v-33.4C344,304.4,354.2,283.4,371,269.4z M456,296v32h-48v-32c0-13.2,10.8-24,24-24S456,282.8,456,296z M349.2,128H392
			c13.2,0,24,10.8,24,24v24h8c4.4,0,8,3.6,8,8v1.4c0,2.1-0.8,4.1-2.3,5.7L416,204.7v36.6l5.4,16.3c-8.6,2.4-16,7.5-21.2,14.4H400
			c-8.8,0-16-7.2-16-16v-16h16v-16h-20.7c-5.1,0-10.1-2.1-13.7-5.7c-3.6-3.6-5.7-8.5-5.7-13.7v-10.4l-23.9-8
			C337.2,159.6,345.4,137.2,349.2,128L349.2,128z M212.4,222.4c2.5,1.2,5.1,2.2,7.6,3.2l5.7,22.4h60.4l5.7-22.4c2.6-1,5.1-2,7.6-3.2
			l19.9,11.8l25-25c1,7.7,4.3,14.8,9.9,20.4c3.9,3.9,8.6,6.6,13.7,8.3v13.6c-24.8,16.7-40,45-40,75v22.4c-4.1-3.2-9.1-5.1-14.4-5.1
			c-0.5,0-1,0.1-1.6,0.1V320c0-13.2-10.8-24-24-24h-24c-6.2,0-11.7,2.4-16,6.2c-4.3-3.8-9.8-6.2-16-6.2h-24c-13.2,0-24,10.8-24,24
			v24.1c-0.5,0-1-0.1-1.6-0.1c-5.3,0-10.3,1.8-14.4,5.1v-26c0-27.6-15.5-52.3-40-64.3V246c5.1-1.7,9.9-4.5,13.9-8.6
			c6.2-6.2,9.9-14.8,10.1-23.7l15-5l25.5,25.5L212.4,222.4z M45.7,278.3C62,290.8,72,310.4,72,331.2v31c-4.9,2.2-9.1,6.1-11.6,11.2
			l-3.6,7.1l14.3,7.2l3.6-7.2c1.4-2.7,4.1-4.4,7.2-4.4l81.4-0.1l13.8-13.8c3.4-3.4,9.8-2.4,12,2l5.9,11.8H208c4.4,0,8,3.6,8,8v16.2
			c0,4.3-3.5,7.8-7.7,7.8H72.9c-8.8,0-17.1-3.5-23.6-10c-6-6-9.3-14-9.3-22.5v-76.9C40,291.2,42.1,284.3,45.7,278.3L45.7,278.3z
			 M72,176c0-4.4,3.6-8,8-8h8v-24c0-4.4,3.6-8,8-8h39.3c2.8,0,5.4,1.4,6.8,3.8c6.2,10.4,16.3,30.7,17.7,54.5l-23.8,7.9l0,10.7
			c0,4.9-2,9.7-5.6,13.4c-3.7,3.7-8.6,5.7-13.7,5.7c0,0,0,0,0,0H104v16l8,0v12.7l-7.1,7.1L88,245.3v-48.6L74.4,183
			c-1.5-1.5-2.3-3.5-2.3-5.7L72,176z M67.4,260.6l9.7-3.2l26.1,34.8l18.5-18.5c18.6,9.5,30.4,28.2,30.4,49.4V360l-64,0.1v-28.9
			c0-25.4-11.9-49.4-31.6-64.9C59.7,263.9,63.4,262,67.4,260.6L67.4,260.6z M40,488.1v-32h112v32H40z M152,440.1H40v-29
			c9.1,8.3,20.7,12.8,32.9,12.8H152V440.1z M232,440h-24c-4.4,0-8-3.6-8-8v-8h8.3c13.1,0,23.7-10.7,23.7-23.8V384
			c0-13.2-10.8-24-24-24h-3.1l-1.5-3c-0.9-1.9-2.1-3.6-3.4-5.1V320c0-4.4,3.6-8,8-8h24c4.4,0,8,3.6,8,8v112
			C240,436.4,236.4,440,232,440z M296,432c0,4.4-3.6,8-8,8h-24c-4.4,0-8-3.6-8-8V320c0-4.4,3.6-8,8-8h24c4.4,0,8,3.6,8,8v31.9
			c-1.3,1.5-2.5,3.2-3.4,5.1l-1.5,3H288c-13.7,0-24,11.2-24,26.1v14.2c0,13.1,10.6,23.7,23.7,23.7h8.3V432z M423.1,424
			c12.2,0,23.7-4.5,32.9-12.9v29H344V424H423.1z M344,488.1v-32h112v32H344z"/>
		<circle cx="368" cy="152" r="8"/>
		<path d="M195,41.9l16.8,10l3.9-2c4.5-2.3,9-4.2,13.5-5.6l4.2-1.4l4.8-18.8h35.6l4.8,18.8l4.2,1.4c4.5,1.4,9,3.3,13.5,5.6l3.9,2
			l16.8-10L342.1,67l-10,16.8l2,3.9c2.3,4.5,4.2,9,5.6,13.5l0.8,2.4l0.6,1.8l8.3,2.1l2.6-10.3l3-0.9c-1-3.3-2.4-6.5-3.8-9.8
			c-0.3-0.7-0.5-1.4-0.8-2.1l11.8-19.9l-42.7-42.7l-19.9,11.8c-2.5-1.2-5.1-2.2-7.6-3.2L286.2,8h-60.4l-5.7,22.4
			c-2.6,1-5.1,2-7.6,3.2l-19.9-11.8l-36.3,36.3c5.4,1.7,10.3,4.5,14.4,8.2L195,41.9z"/>
		<path d="M256,56c-39.7,0-72,32.3-72,72s32.3,72,72,72s72-32.3,72-72S295.7,56,256,56z M256,184c-30.9,0-56-25.1-56-56
			s25.1-56,56-56s56,25.1,56,56S286.9,184,256,184z"/>
	</g>
</g>
</svg>
