<?xml version="1.0" encoding="utf-8"?>
<!-- Generator: Adobe Illustrator 23.1.1, SVG Export Plug-In . SVG Version: 6.00 Build 0)  -->
<svg version="1.1" id="Layer_1" xmlns="http://www.w3.org/2000/svg" xmlns:xlink="http://www.w3.org/1999/xlink" x="0px" y="0px"
	 viewBox="0 0 512 512" style="enable-background:new 0 0 512 512;" xml:space="preserve">
<style type="text/css">
	.st0{fill-rule:evenodd;clip-rule:evenodd;fill:#E6E6E6;}
	.st1{fill-rule:evenodd;clip-rule:evenodd;fill:#8EBFE8;}
	.st2{fill-rule:evenodd;clip-rule:evenodd;fill:#C4CCCF;}
	.st3{fill-rule:evenodd;clip-rule:evenodd;fill:#519AD6;}
	.st4{fill-rule:evenodd;clip-rule:evenodd;fill:#F55A8E;}
	.st5{fill-rule:evenodd;clip-rule:evenodd;fill:#8BC34A;}
</style>
<g>
	<path class="st0" d="M23.6,80.2L260,129.1l228.4-48.9V27.7c0-11.1-9.1-20.1-20.2-20.1H43.7c-11.1,0-20.1,9.1-20.1,20.1V80.2z"/>
	<path class="st1" d="M342.6,80.2H23.6v404c0,11.1,9.1,20.1,20.1,20.1h424.6c11.1,0,20.2-9.1,20.2-20.1v-404H342.6z"/>
	<path class="st2" d="M446.3,80.2h42.2V27.7c0-6.7-3.3-12.7-8.4-16.4c-3.3-2.4-7.4-3.8-11.7-3.8h-42.2c11.1,0,20.2,9,20.2,20.1V80.2
		z"/>
	<path class="st3" d="M480,80.2h-33.8v404c0,11.1-9.1,20.1-20.2,20.1h42.2c4.4,0,8.4-1.4,11.7-3.8c5.1-3.7,8.4-9.6,8.4-16.4v-404
		H480z"/>
	<path class="st0" d="M213.6,251.9h185.7c13.6,0,24.8-11.1,24.8-24.7v-53.4c0-13.6-11.1-24.7-24.8-24.7H213.6l-42.3,56.7
		L213.6,251.9z"/>
	<path class="st4" d="M213.6,251.9V149H113.2c-13.6,0-24.8,11.1-24.8,24.7v53.4c0,13.6,11.1,24.7,24.8,24.7H213.6z"/>
	<path class="st0" d="M213.6,315.2L166.4,373l47.2,45.1h185.7c13.6,0,24.8-11.1,24.8-24.7v-53.4c0-13.6-11.1-24.7-24.8-24.7H213.6z"
		/>
	<path class="st5" d="M213.6,315.2H113.2c-13.6,0-24.8,11.1-24.8,24.7v53.4c0,13.6,11.1,24.7,24.8,24.7h100.4V315.2z"/>
</g>
<path d="M426.7,49.2h0.2c4.2,0,7.6-3.4,7.6-7.6c0-4.2-3.4-7.6-7.6-7.6h-0.2c-4.2,0-7.6,3.4-7.6,7.6
	C419.1,45.8,422.5,49.2,426.7,49.2z"/>
<path d="M390.4,49.2h0.2c4.2,0,7.6-3.4,7.6-7.6c0-4.2-3.4-7.6-7.6-7.6h-0.2c-4.2,0-7.6,3.4-7.6,7.6
	C382.9,45.8,386.2,49.2,390.4,49.2z"/>
<path d="M354.2,49.4h0.2c4.2,0,7.6-3.4,7.6-7.6c0-4.2-3.4-7.6-7.6-7.6h-0.2c-4.2,0-7.6,3.4-7.6,7.6C346.6,46,350,49.4,354.2,49.4z"
	/>
<path d="M468.3,0H43.7C28.4,0,16,12.4,16,27.7v456.6c0,15.3,12.4,27.7,27.7,27.7h424.6c15.3,0,27.7-12.4,27.7-27.7V27.7
	C496,12.4,483.6,0,468.3,0z M468.3,496.9H43.7c-6.9,0-12.6-5.7-12.6-12.6V87.8h206.6c4.2,0,7.6-3.4,7.6-7.6s-3.4-7.6-7.6-7.6H31.1
	v-45c0-6.9,5.6-12.6,12.6-12.6h424.6c6.9,0,12.6,5.6,12.6,12.6v45H272.4c-4.2,0-7.6,3.4-7.6,7.6s3.4,7.6,7.6,7.6h208.5v396.5
	C480.9,491.2,475.2,496.9,468.3,496.9z"/>
<path d="M281.7,41.8c0-4.2-3.4-7.6-7.6-7.6H89.2c-4.2,0-7.6,3.4-7.6,7.6c0,4.2,3.4,7.6,7.6,7.6h184.9
	C278.3,49.4,281.7,46,281.7,41.8z"/>
<path d="M399.3,141.5h-286c-17.8,0-32.3,14.5-32.3,32.3v53.4c0,17.8,14.5,32.3,32.3,32.3H294c4.2,0,7.6-3.4,7.6-7.6
	c0-4.2-3.4-7.6-7.6-7.6h-72.8v-87.8h178.1c9.5,0,17.2,7.7,17.2,17.2v53.4c0,9.5-7.7,17.2-17.2,17.2h-70.6c-4.2,0-7.6,3.4-7.6,7.6
	c0,4.2,3.4,7.6,7.6,7.6h70.6c17.8,0,32.3-14.5,32.3-32.3v-53.4C431.6,156,417.1,141.5,399.3,141.5z M206,244.3h-92.8
	c-9.5,0-17.2-7.7-17.2-17.2v-53.4c0-9.5,7.7-17.2,17.2-17.2H206V244.3z"/>
<path d="M132,395.7c3.2,0,5.2-1.5,6.1-4.4l2.1-7.1H162l2.3,7.1c1,2.9,2.9,4.3,5.8,4.3c1.7,0,3.2-0.5,4.4-1.6
	c1.2-1.2,1.9-2.5,1.9-3.8c0-1.4-0.2-2.6-0.6-3.8l-15.4-41.9c-1.7-4.7-4.8-7.1-9.2-7.1c-4.5,0-7.6,2.4-9.3,7.1l-15.6,41.8
	c-0.4,0.9-0.6,2-0.6,3.1c0,1.7,0.6,3.2,1.8,4.4C128.7,395.1,130.2,395.7,132,395.7z M151.2,350.7l7,22.1l-14.3-0.1L151.2,350.7z"/>
<path d="M399.3,307.6h-286c-17.8,0-32.3,14.5-32.3,32.3v53.4c0,17.8,14.5,32.3,32.3,32.3H294c4.2,0,7.6-3.4,7.6-7.6
	c0-4.2-3.4-7.6-7.6-7.6h-72.8v-87.7h178.1c9.5,0,17.2,7.7,17.2,17.2v53.4c0,9.5-7.7,17.2-17.2,17.2h-70.6c-4.2,0-7.6,3.4-7.6,7.6
	c0,4.2,3.4,7.6,7.6,7.6h70.6c17.8,0,32.3-14.5,32.3-32.3v-53.4C431.6,322.1,417.1,307.6,399.3,307.6z M206,410.5h-92.8
	c-9.5,0-17.2-7.7-17.2-17.2v-53.4c0-9.5,7.7-17.2,17.2-17.2H206V410.5z"/>
<path d="M253.7,192H374c4.2,0,7.6-3.4,7.6-7.6c0-4.2-3.4-7.6-7.6-7.6H253.7c-4.2,0-7.6,3.4-7.6,7.6C246.2,188.7,249.5,192,253.7,192
	z"/>
<path d="M253.7,224.5H374c4.2,0,7.6-3.4,7.6-7.6c0-4.2-3.4-7.6-7.6-7.6H253.7c-4.2,0-7.6,3.4-7.6,7.6
	C246.2,221.2,249.5,224.5,253.7,224.5z"/>
<path d="M260,357.9h120.3c4.2,0,7.6-3.4,7.6-7.6c0-4.2-3.4-7.6-7.6-7.6H260c-4.2,0-7.6,3.4-7.6,7.6
	C252.5,354.5,255.9,357.9,260,357.9z"/>
<path d="M260,390.4h120.3c4.2,0,7.6-3.4,7.6-7.6c0-4.2-3.4-7.6-7.6-7.6H260c-4.2,0-7.6,3.4-7.6,7.6C252.5,387,255.9,390.4,260,390.4
	z"/>
<path d="M150.3,228.5c1.4,0,2.8-0.1,4-0.2c1.2-0.2,2.3-0.4,3.2-0.6c1.7-0.5,3.9-1.4,6.7-2.8l5.5,5c1,0.9,2.4,1.3,3.9,1.3
	c3.8,0,5.7-1.9,5.7-5.7c0-1.6-0.5-2.8-1.4-3.6l-5.2-4.7c2.2-3.7,3.6-6.7,4.3-9c0.7-2.3,1-5.2,1-8.9c0-8.6-2.6-15.7-7.8-21.3
	c-5.2-5.5-11.8-8.3-19.8-8.3c-8.2,0-14.9,2.7-20,8.2c-5.1,5.5-7.7,12.5-7.7,21.1s2.6,15.7,7.9,21.2
	C135.8,225.8,142.4,228.5,150.3,228.5z M140,186.1c2.7-3.3,6.2-4.9,10.3-4.9c4.4,0,7.9,1.6,10.5,4.9c2.6,3.3,3.9,7.7,3.9,13.1
	c0,2.6-0.1,4.4-0.4,5.4c-0.2,1-0.8,2.3-1.8,3.7l-6.8-5.8c-1-0.9-2.4-1.3-4.2-1.3c-3.1,0-4.7,1.4-4.7,4.3c0,2,0.5,3.6,1.6,4.6l6.4,6
	c-1.6,0.8-3,1.3-4.2,1.3c-4.4,0-8-1.7-10.7-5.2s-4.1-7.9-4.1-13.3C135.9,193.7,137.3,189.4,140,186.1z"/>
</svg>
